<?xml version="1.0" encoding="UTF-8"?><svg id="Camada_2" xmlns="http://www.w3.org/2000/svg" viewBox="0 0 1409.83 395.4"><defs><style>.cls-1{fill:#fafafa;}</style></defs><g id="Camada_1-2"><path class="cls-1" d="M247.15,239.01h48.06v3.77h-48.06v85.81h78.26v3.77h-96.63v-175.89l96.63-.25v3.77h-78.26v79.01Z"/><path class="cls-1" d="M345.79,332.36v-176.14h18.62l-.25,169.35c0,1.01.59,1.85,1.76,2.52,3.35.5,6.46.67,9.31.5l67.19-.25v4.03h-96.63Z"/><path class="cls-1" d="M598.43,244.54c0,15.44-3.19,29.61-9.56,42.53-6.21,13.59-15.6,24.49-28.18,32.71-12.75,8.39-27.68,12.58-44.79,12.58s-32.29-4.19-45.04-12.58c-12.25-8.05-21.64-18.96-28.18-32.71-6.21-13.08-9.31-27.26-9.31-42.53s3.1-29.86,9.31-43.28c6.2-13.59,15.6-24.49,28.18-32.71,12.41-8.22,27.43-12.33,45.04-12.33s32.37,4.11,44.79,12.33c12.58,8.22,21.97,19.12,28.18,32.71,6.37,13.25,9.56,27.68,9.56,43.28ZM579.81,244.54c0-14.26-2.43-28.01-7.3-41.27-4.7-12.41-12-22.73-21.89-30.95-5.03-4.03-10.53-7.05-16.48-9.06-5.96-2.01-12.04-3.02-18.24-3.02-12.92,0-24.58,4.03-34.98,12.08-10.07,8.56-17.36,18.96-21.89,31.2-4.87,13.25-7.3,26.92-7.3,41.02s2.43,27.51,7.3,40.76c4.53,12.58,11.83,23.07,21.89,31.45,10.4,7.89,22.06,11.83,34.98,11.83,6.2,0,12.29-1.01,18.24-3.02,5.95-2.01,11.45-4.95,16.48-8.81,9.9-8.05,17.19-18.45,21.89-31.2,4.86-13.25,7.3-26.92,7.3-41.02Z"/><path class="cls-1" d="M797.37,243.08c0,16.95-3.77,32.13-11.32,45.55-7.55,13.08-17.95,23.65-31.2,31.71-13.93,7.89-28.43,11.83-43.53,11.83h-43.53v-176.14h43.53c15.1,0,29.61,3.94,43.53,11.83,13.25,8.05,23.65,18.62,31.2,31.71,7.55,13.59,11.32,28.1,11.32,43.53ZM779,243.83c0-14.59-2.94-28.52-8.81-41.77-5.37-12.41-13.51-22.65-24.41-30.7-10.23-7.71-21.89-11.58-34.98-11.58h-16.86c-3.36,0-5.45,1.18-6.29,3.52-1.01,4.53-1.43,8.98-1.26,13.34v151.48h24.41c13.08,0,24.74-3.86,34.98-11.58,10.73-8.05,18.87-18.28,24.41-30.7,5.87-13.25,8.81-27.26,8.81-42.02Z"/><path class="cls-1" d="M950.36,331.9h-2.77c-2.69,0-5.45-.25-8.3-.75-4.7-.5-9.15-1.76-13.34-3.77-6.88-3.35-12.08-8.39-15.6-15.1-5.2-10.07-9.9-20.63-14.09-31.71-3.36-8.56-8.64-16.1-15.85-22.65-6.38-5.54-13.67-8.3-21.89-8.3l-15.85-.25v82.79h-18.37v-176.14h46.3c11.41-.33,22.23,1.85,32.46,6.54,8.39,3.86,15.18,9.65,20.38,17.36,4.53,7.38,6.79,15.1,6.79,23.15,0,5.37-1.01,10.61-3.02,15.73-2.01,5.12-4.87,9.69-8.56,13.71-7.89,8.72-18.71,14.18-32.46,16.36.5,0,2.43.84,5.79,2.52,3.02,1.68,5.12,3.11,6.29,4.28,5.54,3.69,9.9,8.56,13.08,14.59,3.86,7.89,6.96,15.35,9.31,22.4,2.35,6.21,4.32,11.2,5.91,14.97,1.59,3.77,3.31,7.01,5.16,9.69,5.2,6.54,11.41,11.41,18.62,14.59ZM891.23,239.81c6.88-3.52,12.24-8.81,16.1-15.85,3.52-6.54,5.28-13.59,5.28-21.14s-1.76-14.85-5.28-21.39c-3.86-6.88-9.23-12.24-16.1-16.1-8.39-4.36-17.03-6.46-25.92-6.29h-17.61c-3.36,0-5.03,1.26-5.03,3.77v83.04h22.65c9.22.34,17.87-1.67,25.92-6.04Z"/><path class="cls-1" d="M988.11,332.16h-18.62v-176.14h18.62v176.14Z"/><path class="cls-1" d="M1026.35,175.39l.25,156.77h-3.27v-175.89h14.09l86.06,162.81v-162.81h3.52v175.89h-17.87l-82.79-156.77Z"/><path class="cls-1" d="M1259.86,332.16l-78.51-84.55-.5.5v84.04h-18.37v-176.14h18.62l-.25,84.04,73.22-84.04h4.78l-67.69,78.26,89.33,97.88h-20.63Z"/><path class="cls-1" d="M1409.83,289.88c0,6.04-1.3,11.66-3.9,16.86-2.6,5.2-6.25,9.4-10.95,12.58-8.72,6.04-18.46,9.81-29.19,11.32-6.21.84-11.91,1.26-17.11,1.26-6.04,0-12.08-.5-18.12-1.51-17.28-2.68-31.29-8.89-42.02-18.62l1.76-2.01c3.86,3.19,8.05,5.96,12.58,8.3,9.06,4.2,18.12,6.88,27.18,8.05,3.52.5,6.96.75,10.32.75,4.69,0,10.23-.59,16.61-1.76,8.22-1.34,15.6-4.19,22.14-8.56,3.52-2.01,6.25-4.91,8.18-8.68,1.93-3.77,2.89-7.84,2.89-12.2,0-4.86-1.26-9.31-3.77-13.34-3.86-5.54-8.55-9.98-14.09-13.34-6.71-4.03-14.93-8.3-24.66-12.83-11.41-5.2-21.22-10.32-29.44-15.35-7.55-5.03-13.42-11.32-17.61-18.87-3.02-4.86-4.53-11.07-4.53-18.62,0-3.02.25-6.29.75-9.81,2.52-14.26,9.81-24.57,21.89-30.95,9.22-4.36,18.79-6.54,28.69-6.54,4.36,0,8.22.34,11.58,1.01,5.37.67,10.73,2.18,16.1,4.53,2.85,1.18,6.29,3.02,10.32,5.54,6.71,4.53,12.75,10.32,18.12,17.36l-2.52,2.77c-6.38-9.22-14.43-16.27-24.16-21.14-4.36-2.18-8.1-3.61-11.2-4.28-3.11-.67-7.34-1.34-12.71-2.01-9.4-.5-18.29,1.26-26.67,5.28-5.54,2.52-9.98,6.38-13.34,11.58-3.36,5.2-5.03,10.91-5.03,17.11,0,5.54,1.51,10.49,4.53,14.85,4.53,6.04,9.81,10.91,15.85,14.59,10.07,5.71,19.12,10.32,27.18,13.84,10.9,5.2,21.14,10.74,30.7,16.61,7.38,4.36,13.5,10.32,18.37,17.87,3.52,5.54,5.28,11.66,5.28,18.37Z"/><path class="cls-1" d="M168.94,0c-37.24,0-67.43,30.19-67.43,67.43v313.13c0,4.09-3.32,7.41-7.41,7.41h-19.26c-4.09,0-7.41-3.32-7.41-7.41V67.43C67.43,30.19,37.24,0,0,0h0v327.97c0,37.06,29.9,67.13,66.89,67.42h0s34.65,0,34.65,0h0c37.23-.01,67.41-30.2,67.41-67.43V0h0Z"/></g></svg>