<?xml version="1.0" encoding="UTF-8"?><svg id="Camada_2" xmlns="http://www.w3.org/2000/svg" viewBox="0 0 881.06 563.65"><defs><style>.cls-1{fill:#9e430e;}</style></defs><g id="Camada_1-2"><path class="cls-1" d="M13.34,401.63h34.91v2.74H13.34v62.33h56.85v2.74H0v-127.77l70.19-.18v2.74H13.34v57.4Z"/><path class="cls-1" d="M85,469.45v-127.96h13.53l-.18,123.02c0,.73.43,1.34,1.28,1.83,2.44.37,4.69.49,6.76.37l48.81-.18v2.92h-70.19Z"/><path class="cls-1" d="M268.53,405.65c0,11.21-2.32,21.51-6.95,30.89-4.51,9.87-11.33,17.79-20.47,23.76-9.26,6.09-20.11,9.14-32.54,9.14s-23.46-3.04-32.72-9.14c-8.9-5.85-15.72-13.77-20.47-23.76-4.51-9.5-6.76-19.8-6.76-30.89s2.25-21.69,6.76-31.44c4.51-9.87,11.33-17.79,20.47-23.76,9.02-5.97,19.92-8.96,32.72-8.96s23.52,2.99,32.54,8.96c9.14,5.97,15.96,13.89,20.47,23.76,4.63,9.63,6.95,20.11,6.95,31.44ZM255,405.65c0-10.36-1.77-20.35-5.3-29.98-3.41-9.02-8.71-16.51-15.9-22.48-3.66-2.92-7.65-5.12-11.97-6.58-4.33-1.46-8.75-2.19-13.25-2.19-9.39,0-17.85,2.92-25.41,8.77-7.31,6.22-12.61,13.77-15.9,22.67-3.54,9.63-5.3,19.56-5.3,29.8s1.77,19.99,5.3,29.61c3.29,9.14,8.59,16.76,15.9,22.85,7.55,5.73,16.02,8.59,25.41,8.59,4.51,0,8.93-.73,13.25-2.19,4.33-1.46,8.32-3.59,11.97-6.4,7.19-5.85,12.49-13.4,15.9-22.67,3.53-9.62,5.3-19.56,5.3-29.8Z"/><path class="cls-1" d="M436.14,404.74c0,12.31-2.74,23.34-8.23,33.09-5.48,9.51-13.04,17.18-22.67,23.03-10.12,5.73-20.66,8.59-31.62,8.59h-31.62v-127.96h31.62c10.97,0,21.51,2.86,31.62,8.59,9.62,5.85,17.18,13.53,22.67,23.03,5.48,9.87,8.23,20.41,8.23,31.62ZM422.8,405.29c0-10.6-2.13-20.72-6.4-30.34-3.9-9.02-9.81-16.45-17.73-22.3-7.43-5.6-15.9-8.41-25.41-8.41h-12.25c-2.44,0-3.96.85-4.57,2.56-.73,3.29-1.04,6.52-.91,9.69v110.04h17.73c9.5,0,17.97-2.8,25.41-8.41,7.8-5.85,13.71-13.28,17.73-22.3,4.26-9.63,6.4-19.8,6.4-30.53Z"/><path class="cls-1" d="M547.28,469.26h-2.01c-1.95,0-3.96-.18-6.03-.55-3.41-.37-6.64-1.28-9.69-2.74-5-2.44-8.77-6.09-11.33-10.97-3.78-7.31-7.19-14.99-10.24-23.03-2.44-6.21-6.28-11.7-11.52-16.45-4.63-4.02-9.93-6.03-15.9-6.03l-11.52-.18v60.14h-13.34v-127.96h33.63c8.29-.24,16.15,1.34,23.58,4.75,6.09,2.8,11.03,7.01,14.81,12.61,3.29,5.36,4.94,10.97,4.94,16.82,0,3.9-.73,7.71-2.19,11.42-1.46,3.72-3.54,7.04-6.21,9.96-5.73,6.34-13.59,10.3-23.58,11.88.37,0,1.77.61,4.21,1.83,2.19,1.22,3.72,2.26,4.57,3.11,4.02,2.68,7.19,6.22,9.51,10.6,2.8,5.73,5.05,11.15,6.76,16.27,1.71,4.51,3.14,8.13,4.3,10.88,1.16,2.74,2.41,5.09,3.75,7.04,3.78,4.75,8.29,8.29,13.53,10.6ZM504.32,402.36c5-2.56,8.89-6.4,11.7-11.52,2.56-4.75,3.84-9.87,3.84-15.35s-1.28-10.79-3.84-15.54c-2.8-5-6.7-8.89-11.7-11.7-6.09-3.17-12.37-4.69-18.83-4.57h-12.8c-2.44,0-3.66.91-3.66,2.74v60.32h16.45c6.7.25,12.98-1.22,18.83-4.39Z"/><path class="cls-1" d="M574.7,469.45h-13.53v-127.96h13.53v127.96Z"/><path class="cls-1" d="M602.48,355.57l.18,113.88h-2.38v-127.77h10.24l62.52,118.27v-118.27h2.56v127.77h-12.98l-60.14-113.88Z"/><path class="cls-1" d="M772.11,469.45l-57.03-61.42-.37.37v61.05h-13.34v-127.96h13.53l-.18,61.05,53.19-61.05h3.47l-49.17,56.85,64.89,71.11h-14.99Z"/><path class="cls-1" d="M881.06,438.74c0,4.39-.95,8.47-2.83,12.25-1.89,3.78-4.54,6.83-7.95,9.14-6.34,4.39-13.41,7.13-21.2,8.23-4.51.61-8.65.91-12.43.91-4.39,0-8.77-.37-13.16-1.1-12.55-1.95-22.73-6.46-30.53-13.53l1.28-1.46c2.8,2.32,5.85,4.33,9.14,6.03,6.58,3.05,13.16,5,19.74,5.85,2.56.37,5.06.55,7.49.55,3.41,0,7.43-.43,12.06-1.28,5.97-.97,11.33-3.04,16.09-6.22,2.56-1.46,4.54-3.56,5.94-6.31,1.4-2.74,2.1-5.7,2.1-8.87,0-3.53-.91-6.76-2.74-9.69-2.81-4.02-6.22-7.25-10.24-9.69-4.88-2.92-10.85-6.03-17.91-9.32-8.29-3.78-15.42-7.49-21.39-11.15-5.48-3.66-9.75-8.23-12.8-13.71-2.19-3.53-3.29-8.04-3.29-13.53,0-2.19.18-4.57.55-7.13,1.83-10.36,7.13-17.85,15.9-22.48,6.7-3.17,13.65-4.75,20.84-4.75,3.17,0,5.97.25,8.41.73,3.9.49,7.8,1.58,11.7,3.29,2.07.85,4.57,2.19,7.5,4.02,4.87,3.29,9.26,7.49,13.16,12.61l-1.83,2.01c-4.63-6.7-10.48-11.82-17.55-15.35-3.17-1.58-5.88-2.62-8.13-3.11-2.26-.49-5.33-.97-9.23-1.46-6.83-.37-13.28.91-19.38,3.84-4.02,1.83-7.25,4.63-9.69,8.41-2.44,3.78-3.66,7.92-3.66,12.43,0,4.02,1.1,7.62,3.29,10.78,3.29,4.39,7.13,7.92,11.52,10.6,7.31,4.14,13.89,7.49,19.74,10.05,7.92,3.78,15.35,7.8,22.3,12.06,5.36,3.17,9.81,7.49,13.34,12.98,2.56,4.02,3.84,8.47,3.84,13.34Z"/><path class="cls-1" d="M502.71,0c-27.41,0-49.64,22.22-49.64,49.64v230.5c0,3.01-2.44,5.45-5.45,5.45h-14.18c-3.01,0-5.45-2.44-5.45-5.45V49.64c0-27.41-22.22-49.64-49.64-49.64h0v241.42c0,27.28,22.01,49.42,49.24,49.63h0s25.5,0,25.5,0h0c27.41,0,49.62-22.23,49.62-49.64V0h0Z"/><path class="cls-1" d="M94.14,547.42c-1.67-1.46-4.24-2.55-7.71-3.28l-5.37-1.14c-2.31-.45-3.96-1.15-4.98-2.12-1.02-.96-1.52-2.27-1.52-3.92,0-1.38.37-2.59,1.11-3.64.74-1.05,1.77-1.85,3.1-2.4,1.32-.55,2.9-.83,4.72-.83,2.13,0,4.06.32,5.78.95,1.72.64,3.35,1.66,4.9,3.07l1.5-3.3c-.96-.96-2.07-1.78-3.33-2.45-1.26-.67-2.62-1.18-4.1-1.52s-3.04-.52-4.7-.52c-2.58,0-4.88.45-6.89,1.34-2.01.89-3.58,2.15-4.7,3.77-1.12,1.62-1.68,3.51-1.68,5.68,0,2.61.8,4.7,2.4,6.27,1.6,1.57,4.02,2.69,7.25,3.38l5.37,1.08c1.69.34,3.05.77,4.1,1.29,1.05.52,1.81,1.14,2.27,1.86.46.72.7,1.58.7,2.58,0,1.89-.75,3.41-2.24,4.57-1.5,1.15-3.79,1.73-6.89,1.73-1.69,0-3.24-.15-4.67-.44-1.43-.29-2.75-.74-3.97-1.34-1.22-.6-2.42-1.33-3.59-2.19l-1.5,3.41c1.14.93,2.4,1.71,3.79,2.35,1.39.64,2.92,1.13,4.59,1.47,1.67.34,3.45.52,5.34.52,2.75,0,5.13-.43,7.15-1.29,2.01-.86,3.56-2.07,4.64-3.64,1.08-1.56,1.62-3.35,1.62-5.34,0-2.51-.83-4.5-2.5-5.96Z"/><polygon class="cls-1" points="103.2 563.18 126.16 563.18 126.16 559.62 107.32 559.62 107.32 546.52 125.07 546.52 125.07 542.96 107.32 542.96 107.32 530.37 126.16 530.37 126.16 526.81 103.2 526.81 103.2 563.18"/><path class="cls-1" d="M157.89,548.58c0,3.78-.86,6.61-2.58,8.49s-4.28,2.81-7.69,2.81-5.99-.94-7.74-2.81c-1.75-1.87-2.63-4.7-2.63-8.49v-21.77h-4.23v21.98c0,4.85,1.25,8.54,3.74,11.07,2.49,2.53,6.11,3.79,10.86,3.79s8.35-1.26,10.81-3.79c2.46-2.53,3.69-6.22,3.69-11.07v-21.98h-4.23v21.77Z"/><path class="cls-1" d="M206.41,528.9c-2.74-1.39-6.08-2.09-10.04-2.09h-12.28v36.38h12.28c3.95,0,7.3-.7,10.04-2.09,2.73-1.39,4.82-3.45,6.24-6.17,1.43-2.72,2.14-6.04,2.14-9.96s-.71-7.23-2.14-9.93c-1.43-2.7-3.51-4.75-6.24-6.14ZM206.78,555.91c-2.36,2.44-5.93,3.66-10.71,3.66h-7.74v-29.15h7.74c4.75,0,8.31,1.21,10.68,3.64,2.37,2.43,3.56,6.06,3.56,10.91s-1.18,8.5-3.53,10.94Z"/><path class="cls-1" d="M241.83,548.01c-.43-.3-.91-.52-1.41-.69,1.05-.2,2.02-.49,2.9-.88,1.82-.81,3.21-1.99,4.15-3.56.95-1.56,1.42-3.41,1.42-5.55,0-3.37-1.05-5.97-3.15-7.79-2.1-1.82-5.09-2.73-8.98-2.73h-14.4v36.38h4.23v-15.38h6.6c1.14,0,2.11.1,2.92.31.81.21,1.53.59,2.17,1.13.64.55,1.21,1.31,1.73,2.27l6.29,11.66h4.64l-6.4-11.87c-.83-1.51-1.74-2.61-2.73-3.3ZM226.61,544.45v-14.14h9.55c2.82,0,4.95.59,6.4,1.78,1.45,1.19,2.17,2.93,2.17,5.24s-.72,4.15-2.17,5.34c-1.44,1.19-3.58,1.78-6.4,1.78h-9.55Z"/><rect class="cls-1" x="256.9" y="526.81" width="4.23" height="36.38"/><polygon class="cls-1" points="295.34 556.06 273.41 526.81 270.11 526.81 270.11 563.18 274.08 563.18 274.08 533.86 296.06 563.18 299.26 563.18 299.26 526.81 295.34 526.81 295.34 556.06"/><polygon class="cls-1" points="335.69 526.81 330.27 526.81 312.62 543.32 312.52 543.32 312.52 526.81 308.29 526.81 308.29 563.18 312.52 563.18 312.52 546.05 312.62 546.05 331.25 563.18 336.82 563.18 316.71 544.48 335.69 526.81"/><polygon class="cls-1" points="353.8 563.18 376.76 563.18 376.76 559.62 357.92 559.62 357.92 546.52 375.67 546.52 375.67 542.96 357.92 542.96 357.92 530.37 376.76 530.37 376.76 526.81 353.8 526.81 353.8 563.18"/><polygon class="cls-1" points="401.52 553.05 387.54 526.81 383.98 526.81 383.98 563.18 387.85 563.18 387.85 534.73 400.13 557.56 402.92 557.56 415.04 534.81 415.04 563.18 418.96 563.18 418.96 526.81 415.4 526.81 401.52 553.05"/><polygon class="cls-1" points="466.48 556.06 444.55 526.81 441.25 526.81 441.25 563.18 445.22 563.18 445.22 533.86 467.2 563.18 470.4 563.18 470.4 526.81 466.48 526.81 466.48 556.06"/><path class="cls-1" d="M506.91,531.35c-1.46-1.62-3.22-2.85-5.26-3.72-2.05-.86-4.36-1.29-6.94-1.29s-4.84.44-6.89,1.32c-2.05.88-3.79,2.12-5.24,3.72-1.44,1.6-2.55,3.54-3.33,5.83-.77,2.29-1.16,4.88-1.16,7.76s.39,5.44,1.16,7.74c.77,2.3,1.88,4.27,3.33,5.88,1.45,1.62,3.2,2.86,5.26,3.74,2.06.88,4.35,1.32,6.86,1.32s4.89-.44,6.94-1.32c2.05-.88,3.79-2.12,5.24-3.74,1.44-1.62,2.56-3.58,3.35-5.88.79-2.3,1.19-4.9,1.19-7.79s-.39-5.43-1.16-7.71c-.77-2.29-1.89-4.24-3.35-5.86ZM505.49,553.02c-.96,2.24-2.35,3.94-4.15,5.11-1.81,1.17-4.02,1.75-6.63,1.75s-4.72-.59-6.53-1.78c-1.81-1.19-3.19-2.89-4.15-5.11-.96-2.22-1.45-4.89-1.45-8.02s.48-5.8,1.45-8.02c.96-2.22,2.35-3.91,4.15-5.08,1.81-1.17,3.98-1.75,6.53-1.75s4.82.59,6.63,1.75c1.81,1.17,3.19,2.86,4.15,5.06.96,2.2,1.45,4.89,1.45,8.05s-.48,5.81-1.45,8.05Z"/><path class="cls-1" d="M541.68,547.42c-1.67-1.46-4.24-2.55-7.71-3.28l-5.37-1.14c-2.31-.45-3.97-1.15-4.98-2.12-1.02-.96-1.52-2.27-1.52-3.92,0-1.38.37-2.59,1.11-3.64.74-1.05,1.77-1.85,3.1-2.4,1.32-.55,2.9-.83,4.72-.83,2.13,0,4.06.32,5.78.95,1.72.64,3.35,1.66,4.9,3.07l1.5-3.3c-.96-.96-2.07-1.78-3.33-2.45-1.26-.67-2.62-1.18-4.1-1.52-1.48-.34-3.04-.52-4.7-.52-2.58,0-4.88.45-6.89,1.34-2.01.89-3.58,2.15-4.7,3.77-1.12,1.62-1.68,3.51-1.68,5.68,0,2.61.8,4.7,2.4,6.27,1.6,1.57,4.02,2.69,7.25,3.38l5.37,1.08c1.69.34,3.05.77,4.1,1.29,1.05.52,1.81,1.14,2.27,1.86.46.72.7,1.58.7,2.58,0,1.89-.75,3.41-2.24,4.57-1.5,1.15-3.79,1.73-6.89,1.73-1.69,0-3.24-.15-4.67-.44-1.43-.29-2.75-.74-3.97-1.34-1.22-.6-2.42-1.33-3.59-2.19l-1.5,3.41c1.14.93,2.4,1.71,3.79,2.35,1.39.64,2.92,1.13,4.59,1.47,1.67.34,3.45.52,5.34.52,2.75,0,5.13-.43,7.15-1.29,2.01-.86,3.56-2.07,4.64-3.64,1.08-1.56,1.62-3.35,1.62-5.34,0-2.51-.83-4.5-2.5-5.96Z"/><path class="cls-1" d="M573.41,547.42c-1.67-1.46-4.24-2.55-7.71-3.28l-5.37-1.14c-2.31-.45-3.97-1.15-4.98-2.12-1.02-.96-1.52-2.27-1.52-3.92,0-1.38.37-2.59,1.11-3.64.74-1.05,1.77-1.85,3.1-2.4,1.32-.55,2.9-.83,4.72-.83,2.13,0,4.06.32,5.78.95,1.72.64,3.35,1.66,4.9,3.07l1.5-3.3c-.96-.96-2.07-1.78-3.33-2.45-1.26-.67-2.62-1.18-4.1-1.52-1.48-.34-3.04-.52-4.7-.52-2.58,0-4.88.45-6.89,1.34-2.01.89-3.58,2.15-4.7,3.77-1.12,1.62-1.68,3.51-1.68,5.68,0,2.61.8,4.7,2.4,6.27,1.6,1.57,4.02,2.69,7.25,3.38l5.37,1.08c1.69.34,3.05.77,4.1,1.29,1.05.52,1.81,1.14,2.27,1.86.46.72.7,1.58.7,2.58,0,1.89-.75,3.41-2.24,4.57-1.5,1.15-3.79,1.73-6.89,1.73-1.69,0-3.24-.15-4.67-.44-1.43-.29-2.75-.74-3.97-1.34-1.22-.6-2.42-1.33-3.59-2.19l-1.5,3.41c1.14.93,2.4,1.71,3.79,2.35,1.39.64,2.92,1.13,4.59,1.47,1.67.34,3.45.52,5.34.52,2.75,0,5.13-.43,7.15-1.29,2.01-.86,3.56-2.07,4.64-3.64,1.08-1.56,1.62-3.35,1.62-5.34,0-2.51-.83-4.5-2.5-5.96Z"/><path class="cls-1" d="M595.01,526.81l-16.05,36.38h4.39l3.97-9.29h18.94l4.02,9.29h4.39l-16.05-36.38h-3.61ZM596.76,531.76h.1l7.89,18.58h-15.88l7.89-18.58Z"/><path class="cls-1" d="M642.76,547.42c-1.67-1.46-4.24-2.55-7.71-3.28l-5.37-1.14c-2.31-.45-3.97-1.15-4.98-2.12-1.02-.96-1.52-2.27-1.52-3.92,0-1.38.37-2.59,1.11-3.64.74-1.05,1.77-1.85,3.1-2.4,1.32-.55,2.9-.83,4.72-.83,2.13,0,4.06.32,5.78.95,1.72.64,3.35,1.66,4.9,3.07l1.5-3.3c-.96-.96-2.07-1.78-3.33-2.45s-2.62-1.18-4.1-1.52-3.04-.52-4.7-.52c-2.58,0-4.88.45-6.89,1.34-2.01.89-3.58,2.15-4.7,3.77-1.12,1.62-1.68,3.51-1.68,5.68,0,2.61.8,4.7,2.4,6.27,1.6,1.57,4.02,2.69,7.25,3.38l5.37,1.08c1.69.34,3.05.77,4.1,1.29,1.05.52,1.81,1.14,2.27,1.86.46.72.7,1.58.7,2.58,0,1.89-.75,3.41-2.24,4.57-1.5,1.15-3.79,1.73-6.89,1.73-1.69,0-3.24-.15-4.67-.44-1.43-.29-2.75-.74-3.97-1.34-1.22-.6-2.42-1.33-3.59-2.19l-1.5,3.41c1.14.93,2.4,1.71,3.79,2.35,1.39.64,2.92,1.13,4.59,1.47s3.45.52,5.34.52c2.75,0,5.13-.43,7.15-1.29,2.01-.86,3.56-2.07,4.64-3.64,1.08-1.56,1.62-3.35,1.62-5.34,0-2.51-.83-4.5-2.5-5.96Z"/><polygon class="cls-1" points="682.72 553.05 668.74 526.81 665.18 526.81 665.18 563.18 669.05 563.18 669.05 534.73 681.32 557.56 684.11 557.56 696.24 534.81 696.24 563.18 700.16 563.18 700.16 526.81 696.6 526.81 682.72 553.05"/><path class="cls-1" d="M721.73,526.81l-16.05,36.38h4.39l3.97-9.29h18.94l4.02,9.29h4.39l-16.05-36.38h-3.61ZM723.48,531.76h.1l7.89,18.58h-15.88l7.89-18.58Z"/><path class="cls-1" d="M716.41,519.76c.58-.7,1.39-1.06,2.43-1.06.48,0,1.01.13,1.6.39s1.36.71,2.32,1.37c1.14.72,2.13,1.26,2.99,1.63.86.36,1.69.54,2.48.54,1.68,0,3.08-.59,4.18-1.78,1.1-1.19,1.75-2.88,1.96-5.08l-2.37-.15c-.24,1.31-.65,2.31-1.24,3.02-.59.71-1.39,1.06-2.42,1.06-.48,0-1-.12-1.55-.36-.55-.24-1.38-.72-2.48-1.44-1.1-.72-2.06-1.26-2.86-1.6-.81-.34-1.62-.52-2.45-.52-1.69,0-3.08.59-4.18,1.78-1.1,1.19-1.77,2.88-2.01,5.08l2.37.15c.24-1.31.65-2.31,1.24-3.02Z"/><path class="cls-1" d="M774.28,531.35c-1.46-1.62-3.22-2.85-5.26-3.72-2.05-.86-4.36-1.29-6.94-1.29s-4.84.44-6.89,1.32c-2.05.88-3.79,2.12-5.24,3.72-1.44,1.6-2.55,3.54-3.33,5.83-.77,2.29-1.16,4.88-1.16,7.76s.39,5.44,1.16,7.74c.77,2.3,1.88,4.27,3.33,5.88,1.45,1.62,3.2,2.86,5.26,3.74,2.06.88,4.35,1.32,6.86,1.32s4.89-.44,6.94-1.32c2.05-.88,3.79-2.12,5.24-3.74,1.44-1.62,2.56-3.58,3.35-5.88.79-2.3,1.19-4.9,1.19-7.79s-.39-5.43-1.16-7.71c-.77-2.29-1.89-4.24-3.35-5.86ZM772.86,553.02c-.96,2.24-2.35,3.94-4.15,5.11-1.81,1.17-4.02,1.75-6.63,1.75s-4.72-.59-6.53-1.78c-1.81-1.19-3.19-2.89-4.15-5.11-.96-2.22-1.45-4.89-1.45-8.02s.48-5.8,1.45-8.02c.96-2.22,2.35-3.91,4.15-5.08,1.81-1.17,3.98-1.75,6.53-1.75s4.82.59,6.63,1.75c1.81,1.17,3.19,2.86,4.15,5.06.96,2.2,1.45,4.89,1.45,8.05s-.48,5.81-1.45,8.05Z"/><path class="cls-1" d="M809.05,547.42c-1.67-1.46-4.24-2.55-7.71-3.28l-5.37-1.14c-2.31-.45-3.97-1.15-4.98-2.12-1.02-.96-1.52-2.27-1.52-3.92,0-1.38.37-2.59,1.11-3.64.74-1.05,1.77-1.85,3.1-2.4,1.32-.55,2.9-.83,4.72-.83,2.13,0,4.06.32,5.78.95,1.72.64,3.35,1.66,4.9,3.07l1.5-3.3c-.96-.96-2.07-1.78-3.33-2.45s-2.62-1.18-4.1-1.52c-1.48-.34-3.04-.52-4.7-.52-2.58,0-4.88.45-6.89,1.34-2.01.89-3.58,2.15-4.7,3.77-1.12,1.62-1.68,3.51-1.68,5.68,0,2.61.8,4.7,2.4,6.27,1.6,1.57,4.02,2.69,7.25,3.38l5.37,1.08c1.69.34,3.05.77,4.1,1.29,1.05.52,1.81,1.14,2.27,1.86.46.72.7,1.58.7,2.58,0,1.89-.75,3.41-2.24,4.57-1.5,1.15-3.79,1.73-6.89,1.73-1.69,0-3.24-.15-4.67-.44-1.43-.29-2.75-.74-3.97-1.34-1.22-.6-2.42-1.33-3.59-2.19l-1.5,3.41c1.14.93,2.4,1.71,3.79,2.35,1.39.64,2.92,1.13,4.59,1.47s3.45.52,5.34.52c2.75,0,5.13-.43,7.15-1.29,2.01-.86,3.56-2.07,4.64-3.64,1.08-1.56,1.62-3.35,1.62-5.34,0-2.51-.83-4.5-2.5-5.96Z"/></g></svg>